<svg width="31" height="31" viewBox="0 0 31 31" fill="none" xmlns="http://www.w3.org/2000/svg">
<path d="M15.0099 26.8584H6.51611C5.85307 26.8584 5.21719 26.595 4.74835 26.1262C4.27951 25.6573 4.01611 25.0214 4.01611 24.3584V9.3584C4.01611 8.69536 4.27951 8.05947 4.74835 7.59063C5.21719 7.12179 5.85307 6.8584 6.51611 6.8584H21.5161C22.1792 6.8584 22.815 7.12179 23.2839 7.59063C23.7527 8.05947 24.0161 8.69536 24.0161 9.3584V14.3584" stroke="black" stroke-width="2" stroke-linecap="round" stroke-linejoin="round"/>
<path d="M22.7661 28.1084C25.5275 28.1084 27.7661 25.8698 27.7661 23.1084C27.7661 20.347 25.5275 18.1084 22.7661 18.1084C20.0047 18.1084 17.7661 20.347 17.7661 23.1084C17.7661 25.8698 20.0047 28.1084 22.7661 28.1084Z" stroke="black" stroke-width="2" stroke-linecap="round" stroke-linejoin="round"/>
<path d="M19.0161 4.3584V9.3584" stroke="black" stroke-width="2" stroke-linecap="round" stroke-linejoin="round"/>
<path d="M9.01611 4.3584V9.3584" stroke="black" stroke-width="2" stroke-linecap="round" stroke-linejoin="round"/>
<path d="M4.01611 14.3584H24.0161" stroke="black" stroke-width="2" stroke-linecap="round" stroke-linejoin="round"/>
<path d="M22.7661 21.2284V23.1084L24.0161 24.3584" stroke="black" stroke-width="2" stroke-linecap="round" stroke-linejoin="round"/>
</svg>
