<svg width="33" height="33" viewBox="0 0 33 33" fill="none" xmlns="http://www.w3.org/2000/svg">
<path d="M29.0852 18.264V22.8354C29.0852 24.8164 24.3096 27.4068 18.4186 27.4068C12.5275 27.4068 7.75189 24.8164 7.75189 22.8354V19.0259" stroke="black" stroke-width="2" stroke-linecap="round" stroke-linejoin="round"/>
<path d="M8.19989 19.4206C9.51799 21.1699 13.5942 22.811 18.4186 22.811C24.3096 22.811 29.0852 20.3638 29.0852 18.2609C29.0852 17.08 27.5812 15.7863 25.2208 14.8781" stroke="black" stroke-width="2" stroke-linecap="round" stroke-linejoin="round"/>
<path d="M24.5138 10.645V15.2164C24.5138 17.1973 19.7382 19.7878 13.8471 19.7878C7.9561 19.7878 3.18048 17.1973 3.18048 15.2164V10.645" stroke="black" stroke-width="2" stroke-linecap="round" stroke-linejoin="round"/>
<path fill-rule="evenodd" clip-rule="evenodd" d="M13.8471 15.192C19.7382 15.192 24.5138 12.7448 24.5138 10.6419C24.5138 8.53752 19.7382 6.07352 13.8471 6.07352C7.9561 6.07352 3.18048 8.53752 3.18048 10.6419C3.18048 12.7448 7.9561 15.192 13.8471 15.192Z" stroke="black" stroke-width="2" stroke-linecap="round" stroke-linejoin="round"/>
</svg>
