<svg width="19" height="19" viewBox="0 0 19 19" fill="none" xmlns="http://www.w3.org/2000/svg">
<g clip-path="url(#clip0)">
<path d="M9.18274 0C4.21244 0 0.182739 4.05403 0.182739 9.05433C0.182739 13.5729 3.47347 17.3181 7.7768 18V11.6722H5.49057V9.05433H7.7768V7.05946C7.7768 4.78841 9.12063 3.53607 11.1755 3.53607C12.1602 3.53607 13.1917 3.71265 13.1917 3.71265V5.93933H12.054C10.9379 5.93933 10.5887 6.63839 10.5887 7.35466V9.05252H13.0828L12.6841 11.6704H10.5887V17.9982C14.892 17.32 18.1827 13.5738 18.1827 9.05433C18.1827 4.05403 14.153 0 9.18274 0Z" fill="black"/>
</g>
<defs>
<clipPath id="clip0">
<rect width="18.1622" height="18.1622" fill="white" transform="translate(0.182739)"/>
</clipPath>
</defs>
</svg>
