<svg width="20" height="19" viewBox="0 0 20 19" fill="none" xmlns="http://www.w3.org/2000/svg">
<path d="M13.6411 1.58325H5.72439C3.53826 1.58325 1.76605 3.35546 1.76605 5.54158V13.4583C1.76605 15.6444 3.53826 17.4166 5.72439 17.4166H13.6411C15.8272 17.4166 17.5994 15.6444 17.5994 13.4583V5.54158C17.5994 3.35546 15.8272 1.58325 13.6411 1.58325Z" stroke="black" stroke-width="1.5" stroke-linecap="round" stroke-linejoin="round"/>
<path d="M12.8494 9.00124C12.9471 9.66011 12.8345 10.333 12.5278 10.9242C12.221 11.5154 11.7356 11.9949 11.1407 12.2943C10.5457 12.5938 9.87148 12.698 9.21387 12.5922C8.55627 12.4864 7.94877 12.1759 7.47779 11.7049C7.00681 11.2339 6.69633 10.6264 6.59051 9.96883C6.4847 9.31122 6.58893 8.63699 6.88839 8.04204C7.18784 7.44709 7.66727 6.96171 8.25849 6.65494C8.84971 6.34817 9.5226 6.23563 10.1815 6.33333C10.8535 6.43299 11.4757 6.74615 11.9561 7.22657C12.4366 7.70699 12.7497 8.32918 12.8494 9.00124Z" stroke="black" stroke-width="1.5" stroke-linecap="round" stroke-linejoin="round"/>
<path d="M14.0369 5.14575H14.0466" stroke="black" stroke-width="1.5" stroke-linecap="round" stroke-linejoin="round"/>
</svg>
