<svg width="31" height="31" viewBox="0 0 31 31" fill="none" xmlns="http://www.w3.org/2000/svg">
<path d="M5.82556 10.9871C7.73044 10.9871 9.27465 9.4429 9.27465 7.53802C9.27465 5.63314 7.73044 4.08893 5.82556 4.08893C3.92068 4.08893 2.37646 5.63314 2.37646 7.53802C2.37646 9.4429 3.92068 10.9871 5.82556 10.9871Z" stroke="black" stroke-width="2" stroke-linecap="round" stroke-linejoin="round"/>
<path d="M23.4027 10.9871C25.3076 10.9871 26.8518 9.4429 26.8518 7.53802C26.8518 5.63314 25.3076 4.08893 23.4027 4.08893C21.4978 4.08893 19.9536 5.63314 19.9536 7.53802C19.9536 9.4429 21.4978 10.9871 23.4027 10.9871Z" stroke="black" stroke-width="2" stroke-linecap="round" stroke-linejoin="round"/>
<path d="M14.6141 23.1392C16.519 23.1392 18.0632 21.595 18.0632 19.6901C18.0632 17.7852 16.519 16.241 14.6141 16.241C12.7093 16.241 11.165 17.7852 11.165 19.6901C11.165 21.595 12.7093 23.1392 14.6141 23.1392Z" stroke="black" stroke-width="2" stroke-linecap="round" stroke-linejoin="round"/>
</svg>
