<svg width="36" height="36" viewBox="0 0 36 36" fill="none" xmlns="http://www.w3.org/2000/svg">
<path d="M19.6197 5.32708C19.3827 5.09007 19.1013 4.90206 18.7917 4.77379C18.482 4.64552 18.1501 4.5795 17.815 4.5795C17.4798 4.5795 17.1479 4.64552 16.8383 4.77379C16.5286 4.90206 16.2473 5.09007 16.0103 5.32708L10.5955 10.7404C9.2347 12.1021 8.28674 13.8209 7.86106 15.6984C7.43537 17.5758 7.54933 19.5354 8.18975 21.3509C8.83018 23.1663 9.97098 24.7637 11.4804 25.9585C12.9899 27.1533 14.8065 27.8968 16.7205 28.1033V31.5435C16.7205 31.8336 16.8357 32.1118 17.0409 32.3169C17.246 32.5221 17.5242 32.6373 17.8142 32.6373C18.1043 32.6373 18.3825 32.5221 18.5876 32.3169C18.7928 32.1118 18.908 31.8336 18.908 31.5435V28.1033C20.8222 27.8968 22.6389 27.1531 24.1485 25.9581C25.658 24.7632 26.7988 23.1656 27.4391 21.3499C28.0794 19.5342 28.1931 17.5744 27.7671 15.6969C27.3411 13.8193 26.3927 12.1005 25.0315 10.739L19.6182 5.32562L19.6197 5.32708ZM18.908 25.9012V17.6908C18.908 17.4007 18.7928 17.1225 18.5876 16.9174C18.3825 16.7123 18.1043 16.5971 17.8142 16.5971C17.5242 16.5971 17.246 16.7123 17.0409 16.9174C16.8357 17.1225 16.7205 17.4007 16.7205 17.6908V25.9012C15.2417 25.6976 13.8492 25.0852 12.6995 24.1331C11.5499 23.1809 10.6888 21.9268 10.2133 20.5119C9.73767 19.0969 9.66644 17.5773 10.0076 16.1241C10.3487 14.6709 11.0887 13.3417 12.1442 12.2862L17.5561 6.87437C17.59 6.84042 17.6302 6.81348 17.6745 6.7951C17.7188 6.77672 17.7663 6.76726 17.8142 6.76726C17.8622 6.76726 17.9097 6.77672 17.954 6.7951C17.9983 6.81348 18.0385 6.84042 18.0724 6.87437L23.4842 12.2862C24.5398 13.3417 25.2798 14.6709 25.6209 16.1241C25.9621 17.5773 25.8908 19.0969 25.4152 20.5119C24.9397 21.9268 24.0786 23.1809 22.929 24.1331C21.7793 25.0852 20.3868 25.6976 18.908 25.9012Z" fill="black"/>
</svg>
