<svg width="34" height="34" viewBox="0 0 34 34" fill="none" xmlns="http://www.w3.org/2000/svg">
<path d="M17.0437 3.26276C9.46195 3.26276 3.2937 9.43101 3.2937 17.0128C3.2937 24.5945 9.46195 30.7628 17.0437 30.7628C24.6255 30.7628 30.7937 24.5945 30.7937 17.0128C30.7937 9.43101 24.6255 3.26276 17.0437 3.26276ZM17.0437 28.0128C10.9786 28.0128 6.0437 23.0779 6.0437 17.0128C6.0437 10.9476 10.9786 6.01276 17.0437 6.01276C23.1088 6.01276 28.0437 10.9476 28.0437 17.0128C28.0437 23.0779 23.1088 28.0128 17.0437 28.0128Z" fill="black"/>
<path d="M18.4187 10.1378H15.6687V17.582L20.1966 22.1099L22.1408 20.1656L18.4187 16.4435V10.1378Z" fill="black"/>
</svg>
