<svg width="18" height="14" viewBox="0 0 18 14" fill="none" xmlns="http://www.w3.org/2000/svg">
<path d="M15.4362 3.48904C15.4474 3.64253 15.4474 3.79514 15.4474 3.94775C15.4474 8.61822 11.9414 14 5.53395 14C3.5599 14 1.72599 13.4202 0.182739 12.4134C0.463016 12.4458 0.732912 12.4572 1.02443 12.4572C2.59277 12.4611 4.11669 11.9293 5.35056 10.9477C4.62341 10.9344 3.91853 10.6912 3.33433 10.252C2.75013 9.81282 2.31577 9.19963 2.09191 8.49806C2.30731 8.53051 2.52357 8.55244 2.75021 8.55244C3.0625 8.55244 3.37651 8.50858 3.66803 8.43228C2.8789 8.27073 2.16931 7.83704 1.65992 7.20496C1.15053 6.57288 0.872785 5.78142 0.873916 4.96517V4.92131C1.33845 5.18356 1.87738 5.34757 2.44831 5.3695C1.97001 5.04725 1.57783 4.60997 1.30674 4.09667C1.03565 3.58337 0.894083 3.01002 0.894677 2.42777C0.894677 1.77171 1.06682 1.17003 1.36873 0.645534C2.24428 1.73752 3.33629 2.63086 4.57403 3.26771C5.81178 3.90456 7.16765 4.27071 8.55385 4.34244C8.50021 4.07931 8.46734 3.80654 8.46734 3.53289C8.46711 3.06888 8.55709 2.60937 8.73211 2.18064C8.90714 1.7519 9.16379 1.36235 9.4874 1.03425C9.811 0.706141 10.1952 0.445919 10.6181 0.268456C11.0409 0.0909935 11.4941 -0.000230128 11.9518 4.35966e-07C12.9552 4.35966e-07 13.8609 0.426263 14.4976 1.11565C15.2777 0.962702 16.0258 0.67397 16.7087 0.262248C16.4487 1.07865 15.904 1.77092 15.1767 2.20937C15.8685 2.12936 16.5447 1.94489 17.1827 1.66207C16.7062 2.36646 16.1157 2.98414 15.4362 3.48904Z" fill="black"/>
</svg>
